<svg width="24" height="24" viewBox="0 0 24 24" fill="none" xmlns="http://www.w3.org/2000/svg">
<g clip-path="url(#clip0_503_1188)">
<path d="M18.901 10C19.296 10.6856 19.946 11.1872 20.7093 11.3957C21.4726 11.6042 22.2873 11.5026 22.976 11.113C23.057 11.8366 22.9102 12.5675 22.5562 13.2039C22.2022 13.8402 21.6586 14.3502 21.001 14.663L21 21H15V19C15.0007 18.2191 14.697 17.4687 14.1532 16.9082C13.6095 16.3477 12.8686 16.0213 12.088 15.9984C11.3074 15.9755 10.5487 16.2578 9.97301 16.7855C9.39732 17.3131 9.05004 18.0444 9.00498 18.824L8.99998 19V21H2.99998V14.664C2.34113 14.3517 1.79626 13.8414 1.44147 13.2044C1.08667 12.5675 0.939669 11.8356 1.02098 11.111C1.70962 11.5014 2.52466 11.6036 3.28839 11.3955C4.05212 11.1874 4.70259 10.6858 5.09798 10H18.901ZM17.036 3C17.1075 3.4961 17.2848 3.97105 17.5557 4.39272C17.8267 4.81438 18.1851 5.17293 18.6066 5.4441C19.0282 5.71527 19.5031 5.89273 19.9991 5.96448C20.4952 6.03624 21.0009 6.00061 21.482 5.86C21.3964 6.68858 21.018 7.45945 20.415 8.03408C19.8119 8.60872 19.0237 8.94943 18.192 8.995L18 9H5.99998C5.13396 9.00014 4.29863 8.6792 3.65549 8.09923C3.01234 7.51925 2.60706 6.72143 2.51798 5.86C2.99909 6.00061 3.50478 6.03624 4.00085 5.96448C4.49691 5.89273 4.97178 5.71527 5.39332 5.4441C5.81487 5.17293 6.17325 4.81438 6.44423 4.39272C6.71521 3.97105 6.89245 3.4961 6.96398 3H17.036Z" fill="#495057"/>
</g>
<defs>
<clipPath id="clip0_503_1188">
<rect width="24" height="24" fill="white"/>
</clipPath>
</defs>
</svg>
