<svg width="24" height="24" viewBox="0 0 24 24" fill="none" xmlns="http://www.w3.org/2000/svg">
<g clip-path="url(#clip0_503_1088)">
<path d="M18.901 10C19.296 10.6856 19.946 11.1872 20.7093 11.3957C21.4726 11.6042 22.2873 11.5026 22.976 11.113C23.057 11.8366 22.9102 12.5675 22.5562 13.2039C22.2022 13.8402 21.6586 14.3502 21.001 14.663L21 21H14V19C14.0001 18.4954 13.8096 18.0094 13.4665 17.6395C13.1234 17.2695 12.6531 17.0428 12.15 17.005L12 17C11.4954 16.9998 11.0094 17.1904 10.6394 17.5335C10.2695 17.8766 10.0428 18.3468 10.005 18.85L9.99998 19V21H2.99998V14.664C2.34113 14.3517 1.79626 13.8414 1.44147 13.2044C1.08667 12.5675 0.939669 11.8356 1.02098 11.111C1.70962 11.5014 2.52466 11.6036 3.28839 11.3955C4.05212 11.1874 4.70259 10.6858 5.09798 10H18.901ZM17.93 12H6.06898L5.99298 12.079C5.56198 12.499 5.05798 12.839 4.50698 13.081L4.41098 13.12L4.99998 13.4L4.99898 19L8.00098 18.999V18.927L8.01098 18.704C8.15998 16.688 9.79098 15.105 11.865 15.006L12.073 15.001L12.296 15.011C13.2681 15.0831 14.1804 15.5077 14.8616 16.2051C15.5427 16.9024 15.9457 17.8245 15.995 18.798L15.999 18.999L19 19L19.001 13.4L19.588 13.12L19.493 13.08C18.9414 12.8385 18.438 12.4994 18.007 12.079L17.93 12ZM17.036 3C17.1075 3.4961 17.2848 3.97105 17.5557 4.39272C17.8267 4.81438 18.1851 5.17293 18.6066 5.4441C19.0282 5.71527 19.5031 5.89273 19.9991 5.96448C20.4952 6.03624 21.0009 6.00061 21.482 5.86C21.3964 6.68858 21.018 7.45945 20.415 8.03408C19.8119 8.60872 19.0237 8.94943 18.192 8.995L18 9H5.99998C5.13396 9.00014 4.29863 8.6792 3.65549 8.09923C3.01234 7.51925 2.60706 6.72143 2.51798 5.86C2.99909 6.00061 3.50478 6.03624 4.00085 5.96448C4.49691 5.89273 4.97178 5.71527 5.39332 5.4441C5.81487 5.17293 6.17325 4.81438 6.44423 4.39272C6.71521 3.97105 6.89245 3.4961 6.96398 3H17.036ZM15.6 5H8.39898C8.0387 5.70545 7.53047 6.32487 6.90898 6.816L6.66098 7H17.338L17.326 6.992C16.6828 6.53728 16.1444 5.95012 15.747 5.27L15.6 5Z" fill="#495057"/>
</g>
<defs>
<clipPath id="clip0_503_1088">
<rect width="24" height="24" fill="white"/>
</clipPath>
</defs>
</svg>
